<svg width="32" height="32" viewBox="0 0 32 32" fill="none" xmlns="http://www.w3.org/2000/svg">
<path d="M13.3999 7.46634L2.86658 15.4663C2.53325 15.733 2.53325 16.2663 2.86658 16.533L13.3999 24.533C13.6666 24.733 13.9333 24.6663 14.0666 24.5997C14.3333 24.4663 14.3999 24.2663 14.3999 23.9997V19.9997C14.3999 19.6663 14.7333 19.333 15.0666 19.333H28.6666C28.9999 19.333 29.3333 18.9997 29.3333 18.6663V13.333C29.3333 12.9997 29.0666 12.6663 28.6666 12.6663H15.0666C14.7333 12.6663 14.3999 12.333 14.3999 11.9997V7.99967C14.3999 7.73301 14.2666 7.53301 14.0666 7.39967C13.9999 7.33301 13.7333 7.26634 13.3999 7.46634Z" fill="#1C1C1C"/>
</svg>
